<svg width="151.856" xmlns="http://www.w3.org/2000/svg" height="150" viewBox="-26.428 -25.5 151.856 150" fill="none"><path d="M50.010,0.000C53.072,0.000,58.175,34.000,58.175,37.000C58.175,47.000,99.000,46.000,99.000,49.000C99.000,51.500,59.196,51.650,59.196,61.000C59.196,67.000,53.072,99.000,50.010,99.000C46.948,99.000,40.825,67.500,40.825,61.000C40.825,51.000,0.000,52.000,0.000,49.000C0.000,46.000,40.825,47.000,40.825,37.000C40.825,34.000,46.948,0.000,50.010,0.000ZM59.196,61.000M40.825,37.000" style="fill: rgb(231, 0, 11); fill-opacity: 1;" class="fills"/><defs><filter id="a" x="-.327" y="-.333" width="1.653" height="1.667" filterUnits="objectBoundingBox" color-interpolation-filters="sRGB"><feFlood flood-opacity="0" result="BackgroundImageFix"/><feBlend in="SourceGraphic" in2="BackgroundImageFix" result="shape"/><feGaussianBlur stdDeviation="15" result="filter_49e91e76-4536-8079-8006-07461debe5b4"/></filter></defs><ellipse cx="49.5" cy="49.5" rx="45.928" ry="45" transform="matrix(1.000000, 0.000000, 0.000000, 1.000000, 0.000000, 0.000000)" filter="url(#a)" style="fill: rgb(231, 0, 11); fill-opacity: 0.6;" class="fills"/></svg>